<svg width="24" height="24" viewBox="0 0 24 24" fill="none" xmlns="http://www.w3.org/2000/svg">
<path d="M21.6186 12.2222C21.6186 11.4 21.5518 10.8 21.4073 10.1777H12.0098V13.8888H17.5259C17.4147 14.8111 16.8142 16.2 15.4796 17.1333L15.4609 17.2575L18.4322 19.5573L18.6381 19.5778C20.5287 17.8334 21.6186 15.2666 21.6186 12.2222Z" fill="#4285F4"/>
<path d="M12.0094 21.9998C14.7119 21.9998 16.9806 21.1109 18.6377 19.5776L15.4793 17.1331C14.6341 17.722 13.4997 18.1331 12.0094 18.1331C9.36259 18.1331 7.11609 16.3887 6.31528 13.9775L6.1979 13.9875L3.10828 16.3764L3.06787 16.4886C4.71381 19.7553 8.0947 21.9998 12.0094 21.9998Z" fill="#34A853"/>
<path d="M6.31503 13.9778C6.10373 13.3556 5.98144 12.6889 5.98144 12C5.98144 11.3111 6.10373 10.6444 6.30391 10.0222L6.29832 9.8897L3.16998 7.4624L3.06762 7.51104C2.38925 8.86663 2 10.3889 2 12C2 13.6111 2.38925 15.1333 3.06762 16.4889L6.31503 13.9778Z" fill="#FBBC05"/>
<path d="M12.0094 5.86668C13.8889 5.86668 15.1567 6.6778 15.8796 7.35563L18.7044 4.60003C16.9696 2.9889 14.7119 2 12.0094 2C8.0947 2 4.71381 4.24445 3.06787 7.51113L6.30416 10.0223C7.11609 7.61117 9.36258 5.86668 12.0094 5.86668Z" fill="#EB4335"/>
</svg>
